# MagicaVoxel @ Ephtracy

# group
o 

# material
mtllib ArrowOfLove.mtl
usemtl palette

# normals
vn -1 0 0
vn 1 0 0
vn 0 0 1
vn 0 0 -1
vn 0 -1 0
vn 0 1 0

# texcoords
vt 0.0175781 0.5
vt 0.0957031 0.5
vt 0.123047 0.5
vt 0.958984 0.5

# verts
v -0.3 0.3 1.5
v -0.3 0.3 1.3
v -0.3 0.3 -0.9
v -0.3 0.3 -1.2
v -0.3 0.4 1.5
v -0.3 0.4 1.3
v -0.3 0.4 -0.9
v -0.3 0.4 -1.2
v -0.2 0.3 1.3
v -0.2 0.3 1.2
v -0.2 0.3 -0.8
v -0.2 0.3 -0.9
v -0.2 0.3 -1.2
v -0.2 0.3 -1.3
v -0.2 0.4 1.3
v -0.2 0.4 1.2
v -0.2 0.4 -0.8
v -0.2 0.4 -0.9
v -0.2 0.4 -1.2
v -0.2 0.4 -1.3
v -0.1 0.2 -1
v -0.1 0.2 -1.2
v -0.1 0.3 1.2
v -0.1 0.3 1
v -0.1 0.3 -1
v -0.1 0.3 -1.2
v -0.1 0.3 -1.3
v -0.1 0.3 -1.4
v -0.1 0.4 1.2
v -0.1 0.4 1
v -0.1 0.4 -1
v -0.1 0.4 -1.2
v -0.1 0.4 -1.3
v -0.1 0.4 -1.4
v -0.1 0.5 -1
v -0.1 0.5 -1.2
v 0 0.2 -0.9
v 0 0.2 -1
v 0 0.2 -1.2
v 0 0.2 -1.3
v 0 0.3 1
v 0 0.3 -0.8
v 0 0.3 -0.9
v 0 0.3 -1
v 0 0.3 -1.2
v 0 0.3 -1.3
v 0 0.3 -1.4
v 0 0.3 -1.5
v 0 0.4 1
v 0 0.4 -0.8
v 0 0.4 -0.9
v 0 0.4 -1
v 0 0.4 -1.2
v 0 0.4 -1.3
v 0 0.4 -1.4
v 0 0.4 -1.5
v 0 0.5 -0.9
v 0 0.5 -1
v 0 0.5 -1.2
v 0 0.5 -1.3
v 0.1 0.2 -0.9
v 0.1 0.2 -1
v 0.1 0.2 -1.2
v 0.1 0.2 -1.3
v 0.1 0.3 1
v 0.1 0.3 -0.8
v 0.1 0.3 -0.9
v 0.1 0.3 -1
v 0.1 0.3 -1.2
v 0.1 0.3 -1.3
v 0.1 0.3 -1.4
v 0.1 0.3 -1.5
v 0.1 0.4 1
v 0.1 0.4 -0.8
v 0.1 0.4 -0.9
v 0.1 0.4 -1
v 0.1 0.4 -1.2
v 0.1 0.4 -1.3
v 0.1 0.4 -1.4
v 0.1 0.4 -1.5
v 0.1 0.5 -0.9
v 0.1 0.5 -1
v 0.1 0.5 -1.2
v 0.1 0.5 -1.3
v 0.2 0.2 -1
v 0.2 0.2 -1.2
v 0.2 0.3 1.2
v 0.2 0.3 1
v 0.2 0.3 -1
v 0.2 0.3 -1.2
v 0.2 0.3 -1.3
v 0.2 0.3 -1.4
v 0.2 0.4 1.2
v 0.2 0.4 1
v 0.2 0.4 -1
v 0.2 0.4 -1.2
v 0.2 0.4 -1.3
v 0.2 0.4 -1.4
v 0.2 0.5 -1
v 0.2 0.5 -1.2
v 0.3 0.3 1.3
v 0.3 0.3 1.2
v 0.3 0.3 -0.8
v 0.3 0.3 -0.9
v 0.3 0.3 -1.2
v 0.3 0.3 -1.3
v 0.3 0.4 1.3
v 0.3 0.4 1.2
v 0.3 0.4 -0.8
v 0.3 0.4 -0.9
v 0.3 0.4 -1.2
v 0.3 0.4 -1.3
v 0.4 0.3 1.5
v 0.4 0.3 1.3
v 0.4 0.3 -0.9
v 0.4 0.3 -1.2
v 0.4 0.4 1.5
v 0.4 0.4 1.3
v 0.4 0.4 -0.9
v 0.4 0.4 -1.2
v -0.3 0.3 1.5
v -0.3 0.4 1.5
v 0 0.3 1.5
v 0 0.4 1.5
v 0.1 0.3 1.5
v 0.1 0.4 1.5
v 0.4 0.3 1.5
v 0.4 0.4 1.5
v -0.2 0.3 -0.8
v -0.2 0.4 -0.8
v 0 0.3 -0.8
v 0 0.4 -0.8
v 0.1 0.3 -0.8
v 0.1 0.4 -0.8
v 0.3 0.3 -0.8
v 0.3 0.4 -0.8
v -0.3 0.3 -0.9
v -0.3 0.4 -0.9
v -0.2 0.3 -0.9
v -0.2 0.4 -0.9
v 0 0.2 -0.9
v 0 0.3 -0.9
v 0 0.4 -0.9
v 0 0.5 -0.9
v 0.1 0.2 -0.9
v 0.1 0.3 -0.9
v 0.1 0.4 -0.9
v 0.1 0.5 -0.9
v 0.3 0.3 -0.9
v 0.3 0.4 -0.9
v 0.4 0.3 -0.9
v 0.4 0.4 -0.9
v -0.1 0.2 -1
v -0.1 0.3 -1
v -0.1 0.4 -1
v -0.1 0.5 -1
v 0 0.2 -1
v 0 0.3 -1
v 0 0.4 -1
v 0 0.5 -1
v 0.1 0.2 -1
v 0.1 0.3 -1
v 0.1 0.4 -1
v 0.1 0.5 -1
v 0.2 0.2 -1
v 0.2 0.3 -1
v 0.2 0.4 -1
v 0.2 0.5 -1
v -0.3 0.3 1.3
v -0.3 0.4 1.3
v -0.2 0.3 1.3
v -0.2 0.4 1.3
v 0.3 0.3 1.3
v 0.3 0.4 1.3
v 0.4 0.3 1.3
v 0.4 0.4 1.3
v -0.2 0.3 1.2
v -0.2 0.4 1.2
v -0.1 0.3 1.2
v -0.1 0.4 1.2
v 0.2 0.3 1.2
v 0.2 0.4 1.2
v 0.3 0.3 1.2
v 0.3 0.4 1.2
v -0.1 0.3 1
v -0.1 0.4 1
v 0 0.3 1
v 0 0.4 1
v 0.1 0.3 1
v 0.1 0.4 1
v 0.2 0.3 1
v 0.2 0.4 1
v -0.3 0.3 -1.2
v -0.3 0.4 -1.2
v -0.2 0.3 -1.2
v -0.2 0.4 -1.2
v -0.1 0.2 -1.2
v -0.1 0.3 -1.2
v -0.1 0.4 -1.2
v -0.1 0.5 -1.2
v 0 0.2 -1.2
v 0 0.3 -1.2
v 0 0.4 -1.2
v 0 0.5 -1.2
v 0.1 0.2 -1.2
v 0.1 0.3 -1.2
v 0.1 0.4 -1.2
v 0.1 0.5 -1.2
v 0.2 0.2 -1.2
v 0.2 0.3 -1.2
v 0.2 0.4 -1.2
v 0.2 0.5 -1.2
v 0.3 0.3 -1.2
v 0.3 0.4 -1.2
v 0.4 0.3 -1.2
v 0.4 0.4 -1.2
v -0.2 0.3 -1.3
v -0.2 0.4 -1.3
v -0.1 0.3 -1.3
v -0.1 0.4 -1.3
v 0 0.2 -1.3
v 0 0.3 -1.3
v 0 0.4 -1.3
v 0 0.5 -1.3
v 0.1 0.2 -1.3
v 0.1 0.3 -1.3
v 0.1 0.4 -1.3
v 0.1 0.5 -1.3
v 0.2 0.3 -1.3
v 0.2 0.4 -1.3
v 0.3 0.3 -1.3
v 0.3 0.4 -1.3
v -0.1 0.3 -1.4
v -0.1 0.4 -1.4
v 0 0.3 -1.4
v 0 0.4 -1.4
v 0.1 0.3 -1.4
v 0.1 0.4 -1.4
v 0.2 0.3 -1.4
v 0.2 0.4 -1.4
v 0 0.3 -1.5
v 0 0.4 -1.5
v 0.1 0.3 -1.5
v 0.1 0.4 -1.5
v 0 0.2 -0.9
v 0.1 0.2 -0.9
v -0.1 0.2 -1
v 0 0.2 -1
v 0.1 0.2 -1
v 0.2 0.2 -1
v -0.1 0.2 -1.2
v 0 0.2 -1.2
v 0.1 0.2 -1.2
v 0.2 0.2 -1.2
v 0 0.2 -1.3
v 0.1 0.2 -1.3
v -0.3 0.3 1.5
v 0 0.3 1.5
v 0.1 0.3 1.5
v 0.4 0.3 1.5
v -0.3 0.3 1.3
v -0.2 0.3 1.3
v 0.3 0.3 1.3
v 0.4 0.3 1.3
v -0.2 0.3 1.2
v -0.1 0.3 1.2
v 0.2 0.3 1.2
v 0.3 0.3 1.2
v -0.1 0.3 1
v 0 0.3 1
v 0.1 0.3 1
v 0.2 0.3 1
v -0.2 0.3 -0.8
v 0 0.3 -0.8
v 0.1 0.3 -0.8
v 0.3 0.3 -0.8
v -0.3 0.3 -0.9
v -0.2 0.3 -0.9
v -0.1 0.3 -0.9
v 0 0.3 -0.9
v 0.1 0.3 -0.9
v 0.2 0.3 -0.9
v 0.3 0.3 -0.9
v 0.4 0.3 -0.9
v -0.2 0.3 -1
v -0.1 0.3 -1
v 0 0.3 -1
v 0.1 0.3 -1
v 0.2 0.3 -1
v 0.3 0.3 -1
v -0.3 0.3 -1.2
v -0.2 0.3 -1.2
v -0.1 0.3 -1.2
v 0 0.3 -1.2
v 0.1 0.3 -1.2
v 0.2 0.3 -1.2
v 0.3 0.3 -1.2
v 0.4 0.3 -1.2
v -0.2 0.3 -1.3
v -0.1 0.3 -1.3
v 0 0.3 -1.3
v 0.1 0.3 -1.3
v 0.2 0.3 -1.3
v 0.3 0.3 -1.3
v -0.1 0.3 -1.4
v 0 0.3 -1.4
v 0.1 0.3 -1.4
v 0.2 0.3 -1.4
v 0 0.3 -1.5
v 0.1 0.3 -1.5
v -0.3 0.4 1.5
v 0 0.4 1.5
v 0.1 0.4 1.5
v 0.4 0.4 1.5
v -0.3 0.4 1.3
v -0.2 0.4 1.3
v 0.3 0.4 1.3
v 0.4 0.4 1.3
v -0.2 0.4 1.2
v -0.1 0.4 1.2
v 0.2 0.4 1.2
v 0.3 0.4 1.2
v -0.1 0.4 1
v 0 0.4 1
v 0.1 0.4 1
v 0.2 0.4 1
v -0.2 0.4 -0.8
v 0 0.4 -0.8
v 0.1 0.4 -0.8
v 0.3 0.4 -0.8
v -0.3 0.4 -0.9
v -0.2 0.4 -0.9
v -0.1 0.4 -0.9
v 0 0.4 -0.9
v 0.1 0.4 -0.9
v 0.2 0.4 -0.9
v 0.3 0.4 -0.9
v 0.4 0.4 -0.9
v -0.2 0.4 -1
v -0.1 0.4 -1
v 0 0.4 -1
v 0.1 0.4 -1
v 0.2 0.4 -1
v 0.3 0.4 -1
v -0.3 0.4 -1.2
v -0.2 0.4 -1.2
v -0.1 0.4 -1.2
v 0 0.4 -1.2
v 0.1 0.4 -1.2
v 0.2 0.4 -1.2
v 0.3 0.4 -1.2
v 0.4 0.4 -1.2
v -0.2 0.4 -1.3
v -0.1 0.4 -1.3
v 0 0.4 -1.3
v 0.1 0.4 -1.3
v 0.2 0.4 -1.3
v 0.3 0.4 -1.3
v -0.1 0.4 -1.4
v 0 0.4 -1.4
v 0.1 0.4 -1.4
v 0.2 0.4 -1.4
v 0 0.4 -1.5
v 0.1 0.4 -1.5
v 0 0.5 -0.9
v 0.1 0.5 -0.9
v -0.1 0.5 -1
v 0 0.5 -1
v 0.1 0.5 -1
v 0.2 0.5 -1
v -0.1 0.5 -1.2
v 0 0.5 -1.2
v 0.1 0.5 -1.2
v 0.2 0.5 -1.2
v 0 0.5 -1.3
v 0.1 0.5 -1.3

# faces
f 5/4/1 2/4/1 1/4/1
f 6/4/1 2/4/1 5/4/1
f 7/3/1 4/3/1 3/3/1
f 8/3/1 4/3/1 7/3/1
f 15/4/1 10/4/1 9/4/1
f 16/4/1 10/4/1 15/4/1
f 17/3/1 12/3/1 11/3/1
f 18/3/1 12/3/1 17/3/1
f 19/3/1 14/3/1 13/3/1
f 20/3/1 14/3/1 19/3/1
f 25/2/1 22/2/1 21/2/1
f 26/2/1 22/2/1 25/2/1
f 29/4/1 24/4/1 23/4/1
f 30/4/1 24/4/1 29/4/1
f 33/3/1 28/3/1 27/3/1
f 34/3/1 28/3/1 33/3/1
f 35/2/1 32/2/1 31/2/1
f 36/2/1 32/2/1 35/2/1
f 43/2/1 38/2/1 37/2/1
f 44/2/1 38/2/1 43/2/1
f 45/2/1 40/2/1 39/2/1
f 46/2/1 40/2/1 45/2/1
f 49/1/1 42/1/1 41/1/1
f 50/1/1 42/1/1 49/1/1
f 55/3/1 48/3/1 47/3/1
f 56/3/1 48/3/1 55/3/1
f 57/2/1 52/2/1 51/2/1
f 58/2/1 52/2/1 57/2/1
f 59/2/1 54/2/1 53/2/1
f 60/2/1 54/2/1 59/2/1
f 61/2/2 62/2/2 67/2/2
f 67/2/2 62/2/2 68/2/2
f 63/2/2 64/2/2 69/2/2
f 69/2/2 64/2/2 70/2/2
f 65/1/2 66/1/2 73/1/2
f 73/1/2 66/1/2 74/1/2
f 71/3/2 72/3/2 79/3/2
f 79/3/2 72/3/2 80/3/2
f 75/2/2 76/2/2 81/2/2
f 81/2/2 76/2/2 82/2/2
f 77/2/2 78/2/2 83/2/2
f 83/2/2 78/2/2 84/2/2
f 85/2/2 86/2/2 89/2/2
f 89/2/2 86/2/2 90/2/2
f 87/4/2 88/4/2 93/4/2
f 93/4/2 88/4/2 94/4/2
f 91/3/2 92/3/2 97/3/2
f 97/3/2 92/3/2 98/3/2
f 95/2/2 96/2/2 99/2/2
f 99/2/2 96/2/2 100/2/2
f 101/4/2 102/4/2 107/4/2
f 107/4/2 102/4/2 108/4/2
f 103/3/2 104/3/2 109/3/2
f 109/3/2 104/3/2 110/3/2
f 105/3/2 106/3/2 111/3/2
f 111/3/2 106/3/2 112/3/2
f 113/4/2 114/4/2 117/4/2
f 117/4/2 114/4/2 118/4/2
f 115/3/2 116/3/2 119/3/2
f 119/3/2 116/3/2 120/3/2
f 123/4/3 122/4/3 121/4/3
f 124/4/3 122/4/3 123/4/3
f 125/1/3 124/1/3 123/1/3
f 126/1/3 124/1/3 125/1/3
f 127/4/3 126/4/3 125/4/3
f 128/4/3 126/4/3 127/4/3
f 131/3/3 130/3/3 129/3/3
f 132/3/3 130/3/3 131/3/3
f 135/3/3 134/3/3 133/3/3
f 136/3/3 134/3/3 135/3/3
f 139/3/3 138/3/3 137/3/3
f 140/3/3 138/3/3 139/3/3
f 145/2/3 142/2/3 141/2/3
f 146/2/3 142/2/3 145/2/3
f 147/2/3 144/2/3 143/2/3
f 148/2/3 144/2/3 147/2/3
f 151/3/3 150/3/3 149/3/3
f 152/3/3 150/3/3 151/3/3
f 157/2/3 154/2/3 153/2/3
f 158/2/3 154/2/3 157/2/3
f 159/2/3 156/2/3 155/2/3
f 160/2/3 156/2/3 159/2/3
f 165/2/3 162/2/3 161/2/3
f 166/2/3 162/2/3 165/2/3
f 167/2/3 164/2/3 163/2/3
f 168/2/3 164/2/3 167/2/3
f 169/4/4 170/4/4 171/4/4
f 171/4/4 170/4/4 172/4/4
f 173/4/4 174/4/4 175/4/4
f 175/4/4 174/4/4 176/4/4
f 177/4/4 178/4/4 179/4/4
f 179/4/4 178/4/4 180/4/4
f 181/4/4 182/4/4 183/4/4
f 183/4/4 182/4/4 184/4/4
f 185/4/4 186/4/4 187/4/4
f 187/4/4 186/4/4 188/4/4
f 189/4/4 190/4/4 191/4/4
f 191/4/4 190/4/4 192/4/4
f 193/3/4 194/3/4 195/3/4
f 195/3/4 194/3/4 196/3/4
f 197/2/4 198/2/4 201/2/4
f 201/2/4 198/2/4 202/2/4
f 199/2/4 200/2/4 203/2/4
f 203/2/4 200/2/4 204/2/4
f 205/2/4 206/2/4 209/2/4
f 209/2/4 206/2/4 210/2/4
f 207/2/4 208/2/4 211/2/4
f 211/2/4 208/2/4 212/2/4
f 213/3/4 214/3/4 215/3/4
f 215/3/4 214/3/4 216/3/4
f 217/3/4 218/3/4 219/3/4
f 219/3/4 218/3/4 220/3/4
f 221/2/4 222/2/4 225/2/4
f 225/2/4 222/2/4 226/2/4
f 223/2/4 224/2/4 227/2/4
f 227/2/4 224/2/4 228/2/4
f 229/3/4 230/3/4 231/3/4
f 231/3/4 230/3/4 232/3/4
f 233/3/4 234/3/4 235/3/4
f 235/3/4 234/3/4 236/3/4
f 237/3/4 238/3/4 239/3/4
f 239/3/4 238/3/4 240/3/4
f 241/3/4 242/3/4 243/3/4
f 243/3/4 242/3/4 244/3/4
f 248/2/5 246/2/5 245/2/5
f 249/2/5 246/2/5 248/2/5
f 251/2/5 248/2/5 247/2/5
f 251/2/5 250/2/5 249/2/5
f 251/2/5 249/2/5 248/2/5
f 252/2/5 250/2/5 251/2/5
f 253/2/5 250/2/5 252/2/5
f 254/2/5 250/2/5 253/2/5
f 255/2/5 253/2/5 252/2/5
f 256/2/5 253/2/5 255/2/5
f 261/4/5 258/4/5 257/4/5
f 262/4/5 258/4/5 261/4/5
f 263/4/5 260/4/5 259/4/5
f 264/4/5 260/4/5 263/4/5
f 265/4/5 258/4/5 262/4/5
f 266/4/5 258/4/5 265/4/5
f 267/4/5 263/4/5 259/4/5
f 268/4/5 263/4/5 267/4/5
f 269/4/5 258/4/5 266/4/5
f 270/1/5 259/1/5 258/1/5
f 270/4/5 258/4/5 269/4/5
f 271/4/5 267/4/5 259/4/5
f 271/1/5 259/1/5 270/1/5
f 272/4/5 267/4/5 271/4/5
f 274/1/5 271/1/5 270/1/5
f 275/1/5 271/1/5 274/1/5
f 278/3/5 274/3/5 273/3/5
f 279/3/5 274/3/5 278/3/5
f 280/1/5 275/1/5 274/1/5
f 280/3/5 274/3/5 279/3/5
f 281/3/5 276/3/5 275/3/5
f 281/1/5 275/1/5 280/1/5
f 282/3/5 276/3/5 281/3/5
f 283/3/5 276/3/5 282/3/5
f 285/3/5 279/3/5 278/3/5
f 285/3/5 278/3/5 277/3/5
f 286/2/5 280/2/5 279/2/5
f 286/3/5 279/3/5 285/3/5
f 287/2/5 280/2/5 286/2/5
f 288/2/5 282/2/5 281/2/5
f 289/3/5 283/3/5 282/3/5
f 289/2/5 282/2/5 288/2/5
f 289/3/5 284/3/5 283/3/5
f 290/3/5 284/3/5 289/3/5
f 291/3/5 285/3/5 277/3/5
f 292/2/5 286/2/5 285/2/5
f 292/3/5 285/3/5 291/3/5
f 293/2/5 286/2/5 292/2/5
f 296/2/5 290/2/5 289/2/5
f 297/3/5 284/3/5 290/3/5
f 297/2/5 290/2/5 296/2/5
f 298/3/5 284/3/5 297/3/5
f 299/3/5 293/3/5 292/3/5
f 300/2/5 294/2/5 293/2/5
f 300/3/5 293/3/5 299/3/5
f 301/2/5 294/2/5 300/2/5
f 302/2/5 296/2/5 295/2/5
f 303/3/5 297/3/5 296/3/5
f 303/2/5 296/2/5 302/2/5
f 304/3/5 297/3/5 303/3/5
f 305/3/5 301/3/5 300/3/5
f 306/2/5 302/2/5 301/2/5
f 306/3/5 301/3/5 305/3/5
f 307/3/5 303/3/5 302/3/5
f 307/2/5 302/2/5 306/2/5
f 308/3/5 303/3/5 307/3/5
f 309/3/5 307/3/5 306/3/5
f 310/3/5 307/3/5 309/3/5
f 311/4/6 312/4/6 315/4/6
f 315/4/6 312/4/6 316/4/6
f 313/4/6 314/4/6 317/4/6
f 317/4/6 314/4/6 318/4/6
f 316/4/6 312/4/6 319/4/6
f 319/4/6 312/4/6 320/4/6
f 313/4/6 317/4/6 321/4/6
f 321/4/6 317/4/6 322/4/6
f 320/4/6 312/4/6 323/4/6
f 312/1/6 313/1/6 324/1/6
f 323/4/6 312/4/6 324/4/6
f 313/4/6 321/4/6 325/4/6
f 324/1/6 313/1/6 325/1/6
f 325/4/6 321/4/6 326/4/6
f 324/1/6 325/1/6 328/1/6
f 328/1/6 325/1/6 329/1/6
f 327/3/6 328/3/6 332/3/6
f 332/3/6 328/3/6 333/3/6
f 328/1/6 329/1/6 334/1/6
f 333/3/6 328/3/6 334/3/6
f 329/3/6 330/3/6 335/3/6
f 334/1/6 329/1/6 335/1/6
f 335/3/6 330/3/6 336/3/6
f 336/3/6 330/3/6 337/3/6
f 332/3/6 333/3/6 339/3/6
f 331/3/6 332/3/6 339/3/6
f 333/2/6 334/2/6 340/2/6
f 339/3/6 333/3/6 340/3/6
f 340/2/6 334/2/6 341/2/6
f 335/2/6 336/2/6 342/2/6
f 336/3/6 337/3/6 343/3/6
f 342/2/6 336/2/6 343/2/6
f 337/3/6 338/3/6 343/3/6
f 343/3/6 338/3/6 344/3/6
f 331/3/6 339/3/6 345/3/6
f 339/2/6 340/2/6 346/2/6
f 345/3/6 339/3/6 346/3/6
f 346/2/6 340/2/6 347/2/6
f 343/2/6 344/2/6 350/2/6
f 344/3/6 338/3/6 351/3/6
f 350/2/6 344/2/6 351/2/6
f 351/3/6 338/3/6 352/3/6
f 346/3/6 347/3/6 353/3/6
f 347/2/6 348/2/6 354/2/6
f 353/3/6 347/3/6 354/3/6
f 354/2/6 348/2/6 355/2/6
f 349/2/6 350/2/6 356/2/6
f 350/3/6 351/3/6 357/3/6
f 356/2/6 350/2/6 357/2/6
f 357/3/6 351/3/6 358/3/6
f 354/3/6 355/3/6 359/3/6
f 355/2/6 356/2/6 360/2/6
f 359/3/6 355/3/6 360/3/6
f 356/3/6 357/3/6 361/3/6
f 360/2/6 356/2/6 361/2/6
f 361/3/6 357/3/6 362/3/6
f 360/3/6 361/3/6 363/3/6
f 363/3/6 361/3/6 364/3/6
f 365/2/6 366/2/6 368/2/6
f 368/2/6 366/2/6 369/2/6
f 367/2/6 368/2/6 371/2/6
f 369/2/6 370/2/6 371/2/6
f 368/2/6 369/2/6 371/2/6
f 371/2/6 370/2/6 372/2/6
f 372/2/6 370/2/6 373/2/6
f 373/2/6 370/2/6 374/2/6
f 372/2/6 373/2/6 375/2/6
f 375/2/6 373/2/6 376/2/6
